#!OML:ASF F:\VICON\USERDATA\INSTALL\rory3\rory3.ASF
:FULLY-SPECIFIED
:DEGREES
135
root 1.5189806345607975 17.891748831044257 53.37358373566706 -3.4592065807013332 0.3053321938712329 -1.9505762430220388
lfemur 5.156989995229273 -3.247243435021043 -21.161154957530755
ltibia 34.68514100910141
lfoot -7.401711172202302 -3.7869350055110704
ltoes -13.233451453701228
rfemur -19.77328492665748 0.019291241037390883 26.011599361948967
rtibia 38.3027778223809
rfoot -12.60098210640109 -8.758301131798094
rtoes -2.358130746169482
lowerback 10.093167595662457 -1.671162242961373 -0.7034262004238518
upperback -0.35459665118002764 -2.0427954400541277 2.0861326237208244
thorax -6.00145419211203 -0.9782178941604495 3.512994786205458
lowerneck -16.959484263059718 -3.495320988182036 -1.6647634179072233
upperneck 21.498660637824816 -4.740431013323991 1.425150144625957
head 9.697435430637272 -2.168676743244198 0.17655724646093263
lclavicle -2.5555864676855255e-15 -2.75504502880823e-15
lhumerus -28.99800189372853 0.5805593239411344 81.73404658813259
lradius 25.247608956163056
lwrist 9.490369840507764
lhand -29.450147212415356 18.7131733046247
lfingers nan
lthumb -2.347021310368002 49.142706639814485
rclavicle -2.655356607609556e-15 -2.802970308941734e-15
rhumerus -31.425666534038648 -21.27531049736494 -76.57130875618161
rradius 33.050480998608485
rwrist 1.2776441730848758
rhand -17.561657255531127 22.338471216504164
rfingers nan
rthumb 8.654888666731805 -7.452637583846455
136
root 1.5174667121131176 17.8807484636359 52.996318667659544 -3.513339499181595 0.25889080776946993 -2.1349574441406114
lfemur 3.9573548752753176 -3.0627607361685065 -20.46079692675214
ltibia 38.258451740746814
lfoot -7.1326198260160245 -2.9065911348658
ltoes -13.37402352834106
rfemur -18.60546452814446 0.0768246691587473 26.435579709503475
rtibia 37.098787374341555
rfoot -13.0707400951981 -9.507757748386025
rtoes -2.681869147456603
lowerback 10.114723498535211 -1.5568366428198295 -0.45086333251517474
upperback -0.320361406389503 -1.8496236693816288 2.0790576565674077
thorax -5.995751484685872 -0.8648343040422931 3.402341291718721
lowerneck -16.96614915719808 -3.5118824370740436 -1.6360866908642926
upperneck 21.4063932273426 -4.77015879380912 1.3995757491904188
head 9.650349487390894 -2.1834980625974247 0.15955678793856926
lclavicle -2.5527253019197546e-15 -2.753815916306985e-15
lhumerus -29.159570880407763 0.9059607477518732 81.72127571696672
lradius 25.102023098691852
lwrist 9.502808456394598
lhand -29.55574630924582 18.446115597082468
lfingers nan
lthumb -2.375635395180909 49.046584677301546
rclavicle -2.6570075763157575e-15 -2.8046954201085288e-15
rhumerus -31.674325287448216 -21.471616529690237 -76.72116545422651
rradius 33.10662117613658
rwrist 1.09007791168598
rhand -17.54206264223714 22.358237912809212
rfingers nan
rthumb 8.652698248407965 -7.476497698638326
137
root 1.5437827502594383 17.890154983105532 54.72869700981658 -3.4255106086480036 0.38152260698334695 -2.269960298495698
lfemur 2.3852530308589017 -2.8879642058937165 -19.80441144602175
ltibia 41.973317858351216
lfoot -8.103309849719308 -2.4101491468284975
ltoes -12.933930093058272
rfemur -17.442425767488537 0.17673491573139 26.66891668234012
rtibia 36.43899996405779
rfoot -13.644057486942824 -10.26295660082834
rtoes -2.6936035160210405
lowerback 10.101234402964717 -1.4748520510249317 -0.2121779320944377
upperback -0.304964930810957 -1.6668011420418505 2.0864880260751635
thorax -6.016357561941464 -0.76675735807299 3.2498147639622297
lowerneck -16.968923588929297 -3.538570677413106 -1.5950952153830138
upperneck 21.307540522970033 -4.817967757933733 1.3779788211248678
head 9.604078725998695 -2.2039419500172044 0.13875040518317217
lclavicle -2.549332888173178e-15 -2.7524619611499007e-15
lhumerus -29.2641689701959 1.2477076850945275 81.73628744074261
lradius 24.95982921545673
lwrist 9.799006300899194
lhand -29.532657496022964 18.618660085577456
lfingers nan
lthumb -2.4376580980847775 49.007682335693914
rclavicle -2.6592933910378053e-15 -2.807262094884936e-15
rhumerus -31.953134159288357 -21.55361887625402 -76.84123974725482
rradius 33.168651747857744
rwrist 0.9296530005968839
rhand -17.539516447003983 22.367160232078668
rfingers nan
rthumb 8.661006994350117 -7.4470884308363985
138
root 1.4997350717272782 17.876071662762463 51.27038328907399 -3.5622625512401807 -0.13282686157421172 -3.790829808608204
lfemur 0.3239815807285851 -2.3854419214404547 -17.68991938602153
ltibia 45.76632558345378
lfoot -8.472439105904254 -1.711224602164438
ltoes -12.158504860198153
rfemur -16.857952299182625 0.7709856861931579 28.147637035886657
rtibia 36.43629424810027
rfoot -14.302377645056744 -10.988678043536165
rtoes -2.5462024593438084
lowerback 10.171781890548079 -1.1602789241538296 0.9511029181866506
upperback -0.2981206363795985 -0.9865946487634414 2.236258445237569
thorax -6.106698683202023 -0.46437140878843797 2.7382657927549072
lowerneck -16.976576896925916 -3.587076864990909 -1.5302633292491072
upperneck 21.205021646268577 -4.904275686141182 1.3585088055479428
head 9.561776154831342 -2.2370034652684043 0.1095819351883249
lclavicle -2.5465941578653383e-15 -2.751695410173464e-15
lhumerus -29.326894582639845 1.4879313527861924 81.7751262601936
lradius 24.821462182634697
lwrist 10.152286073417454
lhand -29.682968907644096 18.36372997376806
lfingers nan
lthumb -2.510493684057909 48.96347059010493
rclavicle -2.658802698395608e-15 -2.808637355454937e-15
rhumerus -32.16852210852658 -21.516878361246544 -76.84102059993909
rradius 33.224625915280846
rwrist 1.2876870063851014
rhand -17.515151754073273 22.441230404299503
rfingers nan
rthumb 8.680067668822456 -7.357174886997525
139
root 1.4817046438962638 17.874133559938024 51.75260436241502 -3.5392354197823934 -0.17605261409025866 -4.740376696538197
lfemur -2.200814966867762 -1.868128807246173 -15.968779753286123
ltibia 49.25538565683296
lfoot -9.470714673359437 -0.8093985899398319
ltoes -13.118551305946323
rfemur -16.195685686713983 1.247887977867787 28.983190220212578
rtibia 36.75775118368164
rfoot -14.943035255566798 -11.613890316880877
rtoes -2.523253173922056
lowerback 10.218250702967987 -0.9554956010120571 1.6920025213743437
upperback -0.2893897118094113 -0.5228829595741373 2.326913534038131
thorax -6.18708727263928 -0.2493664765364975 2.2602179375389087
lowerneck -16.99297714616969 -3.6507409822209995 -1.467422500158758
upperneck 21.10877762190861 -5.015987845739434 1.351159573593797
head 9.526417282927786 -2.2778039714726934 0.08004153231476788
lclavicle -2.537617412192875e-15 -2.748240173808011e-15
lhumerus -29.346247755783086 1.6193571175997468 81.845308289602
lradius 24.672557666364305
lwrist 10.248426807362405
lhand -29.660419313472513 18.43314517718736
lfingers nan
lthumb -2.565732540652866 48.88750005809833
rclavicle -2.655949265196034e-15 -2.8115313408838976e-15
rhumerus -32.24475259812824 -21.41603809384043 -76.69848217517512
rradius 33.27316530183749
rwrist 1.766845771969411
rhand -17.537345249214415 22.45212744990522
rfingers nan
rthumb 8.676872153814637 -7.301659181574738
140
root 1.48401165296126 17.886455513469983 53.012188318827704 -3.4958984636670043 0.08424479664935991 -4.909458608556768
lfemur -4.820837291118169 -1.5506761232365796 -15.270250263724874
ltibia 51.996183758710515
lfoot -9.604507810630068 -0.5347864621663954
ltoes -12.900630644636358
rfemur -15.033656343843901 1.2484655301879615 29.047146291312174
rtibia 36.788639005954614
rfoot -15.51183347659562 -12.101693450464007
rtoes -2.7425054702362655
lowerback 10.214182122564448 -0.8431588749061237 1.8724785194203268
upperback -0.2758446257783747 -0.28828369757710154 2.328630117171592
thorax -6.217419659904521 -0.13108759927520888 1.9453397310135967
lowerneck -16.97260493821882 -3.7216225850886246 -1.429951944884292
upperneck 21.030344788505566 -5.1372288569724995 1.3607009435693904
head 9.499508877573906 -2.3208277233292383 0.0564510532693587
lclavicle -2.5290049541307725e-15 -2.7449725065199603e-15
lhumerus -29.370456949202197 1.593351352102458 81.93490350301404
lradius 24.538350094358425
lwrist 10.244163438095311
lhand -29.800654867500196 18.117345827661573
lfingers nan
lthumb -2.619667568044929 48.80237768661629
rclavicle -2.653450996817153e-15 -2.8145057968343067e-15
rhumerus -32.31557239278932 -21.414800110196037 -76.52376904697037
rradius 33.3098248435398
rwrist 2.242396248943414
rhand -17.54802925469706 22.47062712567555
rfingers nan
rthumb 8.682982384710165 -7.247907793807556
141
root 1.4706907663540383 17.897273265576896 52.68893791984882 -3.4997549397694763 0.31142006314636883 -5.421715949155382
lfemur -7.578268911218029 -1.388112093428221 -14.598515903450256
ltibia 53.90020518249992
lfoot -9.844257083708492 -0.7116640474500047
ltoes -13.814913781346377
rfemur -13.820171171567385 1.122688596785748 29.352305060051037
rtibia 36.57010450689508
rfoot -15.873820127812522 -12.3830553475291
rtoes -3.1714067016181273
lowerback 10.1870951987462 -0.6852546321777785 2.2715190690511613
upperback -0.28106191280612464 0.030678550674026472 2.3517393718142254
thorax -6.203392402511039 0.04250844160128847 1.5984212080874665
lowerneck -16.898295438923814 -3.7958231686033606 -1.4274952046520564
upperneck 20.994255655971177 -5.260905862585782 1.384099097928008
head 9.488612523972623 -2.3638250108611607 0.039750874940741615
lclavicle -2.521582932099085e-15 -2.741972288252555e-15
lhumerus -29.44274553628715 1.4706986801579078 82.00114342074633
lradius 24.457752217355782
lwrist 10.480658713585505
lhand -29.784102282106428 18.280769132095926
lfingers nan
lthumb -2.6812258843145633 48.82258129580018
rclavicle -2.649385824022059e-15 -2.8152759663481418e-15
rhumerus -32.40168281271581 -21.5038814630978 -76.33601965788749
rradius 33.332894581943584
rwrist 2.3414675399690106
rhand -17.581522245346967 22.403604134180007
rfingers nan
rthumb 8.682161999681428 -7.269918822514098
142
root 1.4271921842821862 17.892314465066544 49.9558451326248 -3.522563460535657 0.39077366555623017 -6.231207933817717
lfemur -10.324872723714009 -1.2948340933565368 -13.856276381566481
ltibia 54.8533735700848
lfoot -10.749174874800406 -0.7849495042514856
ltoes -13.73971939822108
rfemur -12.882538412225156 1.1683418067343487 29.94030330745819
rtibia 36.47342380544102
rfoot -15.944407676960715 -12.39100287448149
rtoes -3.653187748613947
lowerback 10.200162473900175 -0.4688889849532627 2.908783737397526
upperback -0.30752053067504737 0.47177122209758005 2.384144718550278
thorax -6.194877250129787 0.2712440455464486 1.1283121183058198
lowerneck -16.788641914211027 -3.8615003715872738 -1.4510792886635238
upperneck 21.015714255892238 -5.3701834444113965 1.4131215712726606
head 9.497515833097067 -2.4017429982933742 0.029523038250305084
lclavicle -2.5145174657291632e-15 -2.7392218110812025e-15
lhumerus -29.556611410151366 1.3821127003553264 82.03307534214761
lradius 24.459250984722356
lwrist 10.781619131495859
lhand -29.92961235760567 18.016906035208105
lfingers nan
lthumb -2.746541160970831 48.81024046397874
rclavicle -2.6420349077630125e-15 -2.8143614346670084e-15
rhumerus -32.50411949750807 -21.64413567610996 -76.15831088724313
rradius 33.35255305012318
rwrist 2.144212688669742
rhand -17.58599395574422 22.351775468295468
rfingers nan
rthumb 8.687024747436892 -7.320401590925755
